<svg xmlns="http://www.w3.org/2000/svg" viewBox="0 0 1600 900" role="img" aria-labelledby="title desc">
  <title id="title">MyShezanet application preview</title>
  <desc id="desc">Dark MyShezanet customer app preview with login and dashboard panels.</desc>
  <defs>
    <linearGradient id="green" x1="0" y1="0" x2="1" y2="1"><stop offset="0" stop-color="#69ff20"/><stop offset="1" stop-color="#16a34a"/></linearGradient>
    <radialGradient id="glow" cx="70%" cy="45%" r="70%"><stop offset="0" stop-color="#22c55e" stop-opacity=".34"/><stop offset="1" stop-color="#020617" stop-opacity="0"/></radialGradient>
    <filter id="blur"><feGaussianBlur stdDeviation="22"/></filter>
  </defs>
  <rect width="1600" height="900" fill="#050712"/>
  <path d="M0 770C310 660 420 880 705 745c290-137 370-405 895-310v465H0z" fill="#0b2a12" opacity=".95"/>
  <path d="M0 810C420 700 528 845 820 735c250-94 405-290 780-270" fill="none" stroke="#39ff14" stroke-width="9" opacity=".75"/>
  <path d="M720 0c230 85 405 30 640 45 96 6 170 25 240 62v793H720z" fill="url(#glow)"/>
  <g transform="translate(82 70)">
    <image href="/images/myshezanet-logo.svg" width="540" height="189"/>
    <text x="0" y="305" fill="#fff" font-family="Arial, Helvetica, sans-serif" font-size="64" font-weight="900">MyShezanet <tspan fill="#39ff14">Customer</tspan></text>
    <text x="0" y="360" fill="#d1d5db" font-family="Arial, Helvetica, sans-serif" font-size="34">Aplikasi pelanggan resmi ShezaNet</text>
    <g font-family="Arial, Helvetica, sans-serif" font-size="24" font-weight="700" fill="#fff">
      <g transform="translate(0 430)"><circle cx="31" cy="31" r="31" fill="#06131f" stroke="#39ff14"/><text x="80" y="25">Aman &amp; Terpercaya</text><text x="80" y="58" fill="#a3a3a3" font-size="18" font-weight="400">Data Anda terlindungi</text></g>
      <g transform="translate(0 525)"><circle cx="31" cy="31" r="31" fill="#06131f" stroke="#39ff14"/><text x="80" y="25">Monitoring Koneksi</text><text x="80" y="58" fill="#a3a3a3" font-size="18" font-weight="400">Pantau internet kapan saja</text></g>
      <g transform="translate(0 620)"><circle cx="31" cy="31" r="31" fill="#06131f" stroke="#39ff14"/><text x="80" y="25">Tagihan &amp; Pembayaran</text><text x="80" y="58" fill="#a3a3a3" font-size="18" font-weight="400">Bayar lebih mudah</text></g>
    </g>
  </g>
  <g transform="translate(650 65)">
    <rect width="360" height="760" rx="54" fill="#020617" stroke="#334155" stroke-width="6"/>
    <rect x="24" y="28" width="312" height="704" rx="38" fill="#03101a"/>
    <image href="/images/myshezanet-mark.svg" x="98" y="70" width="164" height="164"/>
    <text x="180" y="292" text-anchor="middle" fill="#fff" font-family="Arial" font-size="33" font-weight="800">MyShezanet</text>
    <text x="180" y="330" text-anchor="middle" fill="#39ff14" font-family="Arial" font-size="24">Customer</text>
    <rect x="48" y="390" width="264" height="46" rx="23" fill="#020617" stroke="#94a3b8"/>
    <rect x="48" y="456" width="264" height="46" rx="23" fill="#020617" stroke="#94a3b8"/>
    <rect x="48" y="544" width="264" height="58" rx="29" fill="url(#green)"/>
    <text x="180" y="581" text-anchor="middle" fill="#fff" font-family="Arial" font-size="22" font-weight="800">Login</text>
  </g>
  <g transform="translate(1045 95)">
    <rect width="385" height="690" rx="52" fill="#f8fafc"/>
    <text x="42" y="72" fill="#111827" font-family="Arial" font-size="20">Halo,</text>
    <text x="42" y="104" fill="#111827" font-family="Arial" font-size="25" font-weight="800">ShezaNet Customer 👋</text>
    <rect x="36" y="148" width="313" height="120" rx="24" fill="#06131f"/>
    <text x="62" y="190" fill="#fff" font-family="Arial" font-size="18">Saldo Anda</text>
    <text x="62" y="232" fill="#fff" font-family="Arial" font-size="35" font-weight="800">Rp 125.000</text>
    <rect x="36" y="300" width="313" height="122" rx="24" fill="#fff" stroke="#e5e7eb"/>
    <text x="62" y="345" fill="#111827" font-family="Arial" font-size="18">Status Koneksi</text>
    <text x="62" y="384" fill="#16a34a" font-family="Arial" font-size="25" font-weight="800">● Online</text>
    <circle cx="273" cy="361" r="48" fill="none" stroke="#22c55e" stroke-width="10"/>
    <text x="273" y="368" text-anchor="middle" fill="#111827" font-family="Arial" font-size="32" font-weight="900">25</text>
    <g fill="#fff" stroke="#e5e7eb"><rect x="36" y="458" width="145" height="78" rx="16"/><rect x="204" y="458" width="145" height="78" rx="16"/><rect x="36" y="554" width="145" height="78" rx="16"/><rect x="204" y="554" width="145" height="78" rx="16"/></g>
    <g fill="#111827" font-family="Arial" font-size="17" font-weight="700"><text x="74" y="503">Tagihan</text><text x="242" y="503">Riwayat</text><text x="74" y="599">Voucher</text><text x="242" y="599">Support</text></g>
  </g>
</svg>
